<svg xmlns="http://www.w3.org/2000/svg" width="63.857" height="63.947" viewBox="0 0 63.857 63.947">
    <g id="icon_uil" data-name="icon uil" transform="translate(-208 -443.188)">
      <circle id="bg" cx="31.929" cy="31.929" r="31.929" transform="translate(208 443.188)" fill="#74043b"/>
      <g id="body" transform="translate(220.164 483.282)">
        <g id="body-2" data-name="body" transform="translate(-0.083 -0.011) rotate(-0.4)">
          <path id="links_body" data-name="links body" d="M0,16.937,4.888,0h15.49V23.82q-.271,0-.543,0A31.868,31.868,0,0,1,0,16.937Z" transform="translate(0 0.04)" fill="#9f004e"/>
          <path id="rechts_body" data-name="rechts body" d="M0,0H15.49L20.18,16.25A31.872,31.872,0,0,1,0,23.86Z" transform="translate(20.378)" fill="#9f004e"/>
        </g>
        <g id="buikje" transform="matrix(1, -0.012, 0.012, 1, 7.822, 8.17)">
          <path id="links_buikje" data-name="links buikje" d="M.063,13.319A12.185,12.185,0,0,1,0,12.08,11.971,11.971,0,0,1,3.556,3.539,12.091,12.091,0,0,1,12.14,0c.086,0,.177,0,.27,0V15.565q-.27,0-.54,0A31.885,31.885,0,0,1,.063,13.319Z" transform="translate(0.318 0.112)" fill="#74043b"/>
          <path id="rechts_buikje" data-name="rechts buikje" d="M0,0C.093,0,.184,0,.27,0A12.088,12.088,0,0,1,8.854,3.54a11.977,11.977,0,0,1,3.556,8.544q0,.387-.024.769A31.824,31.824,0,0,1,0,15.569Z" transform="translate(12.636 0.112)" fill="#74043b"/>
        </g>
      </g>
      <g id="kop" transform="translate(218.847 454.852)">
        <g id="gezicht" transform="translate(0)">
          <path id="rechts_gezicht" data-name="rechts gezicht" d="M0,35.481V.305A21.976,21.976,0,0,1,7.266,1.548L17.688,0,16.555,7.587A17.811,17.811,0,0,1,21.7,19.542a13.046,13.046,0,0,1-1.747,6.588,15.758,15.758,0,0,1-4.719,5.024A26.755,26.755,0,0,1,0,35.48H0Z" transform="translate(21.695)" fill="#9f004e"/>
          <path id="links_gezicht" data-name="links gezicht" d="M21.694,35.481h0A26.753,26.753,0,0,1,6.467,31.153a15.752,15.752,0,0,1-4.72-5.024A13.054,13.054,0,0,1,0,19.542,17.681,17.681,0,0,1,4.842,7.913L3.66,0,14.325,1.585A21.991,21.991,0,0,1,21.7.305V35.481Z" fill="#9f004e"/>
        </g>
        <g id="bekje" transform="translate(18.486 19.701)">
          <path id="links_bek" data-name="links bek" d="M3.159,10.831v0L0,5.416,3.159,0V10.831Z" transform="translate(0.067 -0.364)" fill="#74043b"/>
          <path id="rechts_bek" data-name="rechts bek" d="M3.159,0V0L0,5.415l3.159,5.416V0Z" transform="translate(6.326 10.466) rotate(180)" fill="#74043b"/>
        </g>
        <g id="ogen" transform="translate(5.559 10.532)">
          <g id="links_oog" data-name="links oog" transform="translate(0 0)">
            <path id="oog" d="M8.678,17.356A8.678,8.678,0,0,1,2.542,2.541,8.683,8.683,0,0,1,13.028,1.167a8.727,8.727,0,0,1,3.108,3.071v8.88a8.673,8.673,0,0,1-7.458,4.238Z" fill="#74043b"/>
            <circle id="zwart_deel_oog" data-name="zwart deel oog" cx="4.339" cy="4.339" r="4.339" transform="translate(4.34 4.339)" fill="#9f004e"/>
          </g>
          <g id="rechts_oog" data-name="rechts oog" transform="translate(16.137 0)">
            <path id="oog-2" data-name="oog" d="M8.678,0A8.678,8.678,0,0,0,2.542,14.815a8.683,8.683,0,0,0,10.486,1.374,8.728,8.728,0,0,0,3.108-3.071V4.238A8.673,8.673,0,0,0,8.678,0Z" transform="translate(16.136 17.356) rotate(180)" fill="#74043b"/>
            <circle id="zwart_deel_oog-2" data-name="zwart deel oog" cx="4.339" cy="4.339" r="4.339" transform="translate(3.661 4.339)" fill="#9f004e"/>
          </g>
        </g>
      </g>
    </g>
  </svg>
  